<svg width="29" height="30" viewBox="0 0 29 30" fill="none" xmlns="http://www.w3.org/2000/svg">
<path d="M0.4 15C0.4 22.7872 6.71278 29.1 14.5 29.1C22.2872 29.1 28.6 22.7872 28.6 15C28.6 7.21278 22.2872 0.9 14.5 0.9C6.71278 0.9 0.4 7.21278 0.4 15ZM26.0667 15C26.0667 21.3881 20.8881 26.5667 14.5 26.5667C8.11191 26.5667 2.93333 21.3881 2.93333 15C2.93333 8.61191 8.11191 3.43333 14.5 3.43333C20.8881 3.43333 26.0667 8.61191 26.0667 15ZM14.2088 6.15C13.6741 6.15 13.2333 6.58724 13.2333 7.1269V17.0398C13.2333 17.5839 13.6703 18.0167 14.2088 18.0167H14.7912C15.3259 18.0167 15.7667 17.5794 15.7667 17.0398V7.1269C15.7667 6.58277 15.3297 6.15 14.7912 6.15H14.2088ZM12.65 22C12.65 23.0217 13.4783 23.85 14.5 23.85C15.5217 23.85 16.35 23.0217 16.35 22C16.35 20.9783 15.5217 20.15 14.5 20.15C13.4783 20.15 12.65 20.9783 12.65 22Z" fill="#434343" stroke="#434343" stroke-width="0.2"/>
</svg>
