<svg width="19" height="17" viewBox="0 0 19 17" fill="none" xmlns="http://www.w3.org/2000/svg">
<path d="M2.3 1.8C2.3 0.81 3.11 0 4.1 0C5.09 0 5.9 0.81 5.9 1.8C5.9 2.79 5.09 3.6 4.1 3.6C3.11 3.6 2.3 2.79 2.3 1.8ZM6.602 5.022C5.81283 4.67758 4.96105 4.4998 4.1 4.4998C3.23895 4.4998 2.38717 4.67758 1.598 5.022C1.27194 5.16137 0.994031 5.39349 0.798816 5.68951C0.603601 5.98554 0.499691 6.3324 0.500001 6.687V7.2H7.7V6.687C7.7 5.958 7.268 5.31 6.602 5.022ZM14.9 3.6C15.89 3.6 16.7 2.79 16.7 1.8C16.7 0.81 15.89 0 14.9 0C13.91 0 13.1 0.81 13.1 1.8C13.1 2.79 13.91 3.6 14.9 3.6ZM17.402 5.022C16.6128 4.67758 15.7611 4.4998 14.9 4.4998C14.0389 4.4998 13.1872 4.67758 12.398 5.022C12.0719 5.16137 11.794 5.39349 11.5988 5.68951C11.4036 5.98554 11.2997 6.3324 11.3 6.687V7.2H18.5V6.687C18.5 5.958 18.068 5.31 17.402 5.022ZM18.5 12.6L14.9 9V11.7H4.1V9L0.500001 12.6L4.1 16.2V13.5H14.9V16.2L18.5 12.6Z" fill="#262626"/>
</svg>
