<svg width="33" height="32" viewBox="0 0 33 32" fill="none" xmlns="http://www.w3.org/2000/svg">
<path d="M19.125 26.5H4.691C3.48262 26.5 2.5 25.5174 2.5 24.309V5.94188C2.5 4.7335 3.4835 3.75 4.69188 3.75H24.8081C26.0165 3.75 27 4.7335 27 5.94188V18.625C27 19.1089 26.6089 19.5 26.125 19.5C25.6411 19.5 25.25 19.1089 25.25 18.625V5.94188C25.25 5.69863 25.0514 5.5 24.8081 5.5H4.69188C4.44863 5.5 4.25 5.69863 4.25 5.94188V24.309C4.25 24.5523 4.44775 24.75 4.691 24.75H19.125C19.6089 24.75 20 25.1411 20 25.625C20 26.1089 19.6089 26.5 19.125 26.5V26.5ZM26.125 10.75H3.375C2.892 10.75 2.5 10.358 2.5 9.875C2.5 9.392 2.892 9 3.375 9H26.125C26.6089 9 27 9.392 27 9.875C27 10.358 26.6089 10.75 26.125 10.75ZM7.75 7.25C7.267 7.25 6.875 6.858 6.875 6.375V2.875C6.875 2.392 7.267 2 7.75 2C8.233 2 8.625 2.392 8.625 2.875V6.375C8.625 6.858 8.233 7.25 7.75 7.25ZM14.75 7.25C14.267 7.25 13.875 6.858 13.875 6.375V2.875C13.875 2.392 14.267 2 14.75 2C15.233 2 15.625 2.392 15.625 2.875V6.375C15.625 6.858 15.233 7.25 14.75 7.25ZM21.75 7.25C21.2661 7.25 20.875 6.858 20.875 6.375V2.875C20.875 2.392 21.2661 2 21.75 2C22.2339 2 22.625 2.392 22.625 2.875V6.375C22.625 6.858 22.2339 7.25 21.75 7.25Z" fill="#434343"/>
<path d="M7.75 18.625C8.23325 18.625 8.625 18.2332 8.625 17.75C8.625 17.2668 8.23325 16.875 7.75 16.875C7.26675 16.875 6.875 17.2668 6.875 17.75C6.875 18.2332 7.26675 18.625 7.75 18.625Z" fill="#434343"/>
<path d="M7.75 22.125C8.23325 22.125 8.625 21.7332 8.625 21.25C8.625 20.7668 8.23325 20.375 7.75 20.375C7.26675 20.375 6.875 20.7668 6.875 21.25C6.875 21.7332 7.26675 22.125 7.75 22.125Z" fill="#434343"/>
<path d="M21.75 15.125C22.2332 15.125 22.625 14.7332 22.625 14.25C22.625 13.7668 22.2332 13.375 21.75 13.375C21.2668 13.375 20.875 13.7668 20.875 14.25C20.875 14.7332 21.2668 15.125 21.75 15.125Z" fill="#434343"/>
<path d="M14.75 15.125C15.2332 15.125 15.625 14.7332 15.625 14.25C15.625 13.7668 15.2332 13.375 14.75 13.375C14.2668 13.375 13.875 13.7668 13.875 14.25C13.875 14.7332 14.2668 15.125 14.75 15.125Z" fill="#434343"/>
<path d="M14.75 18.625C15.2332 18.625 15.625 18.2332 15.625 17.75C15.625 17.2668 15.2332 16.875 14.75 16.875C14.2668 16.875 13.875 17.2668 13.875 17.75C13.875 18.2332 14.2668 18.625 14.75 18.625Z" fill="#434343"/>
<path d="M14.75 22.125C15.2332 22.125 15.625 21.7332 15.625 21.25C15.625 20.7668 15.2332 20.375 14.75 20.375C14.2668 20.375 13.875 20.7668 13.875 21.25C13.875 21.7332 14.2668 22.125 14.75 22.125Z" fill="#434343"/>
<path d="M11.25 15.125C11.7332 15.125 12.125 14.7332 12.125 14.25C12.125 13.7668 11.7332 13.375 11.25 13.375C10.7668 13.375 10.375 13.7668 10.375 14.25C10.375 14.7332 10.7668 15.125 11.25 15.125Z" fill="#434343"/>
<path d="M11.25 18.625C11.7332 18.625 12.125 18.2332 12.125 17.75C12.125 17.2668 11.7332 16.875 11.25 16.875C10.7668 16.875 10.375 17.2668 10.375 17.75C10.375 18.2332 10.7668 18.625 11.25 18.625Z" fill="#434343"/>
<path d="M11.25 22.125C11.7332 22.125 12.125 21.7332 12.125 21.25C12.125 20.7668 11.7332 20.375 11.25 20.375C10.7668 20.375 10.375 20.7668 10.375 21.25C10.375 21.7332 10.7668 22.125 11.25 22.125Z" fill="#434343"/>
<path d="M18.25 15.125C18.7332 15.125 19.125 14.7332 19.125 14.25C19.125 13.7668 18.7332 13.375 18.25 13.375C17.7668 13.375 17.375 13.7668 17.375 14.25C17.375 14.7332 17.7668 15.125 18.25 15.125Z" fill="#434343"/>
<path d="M18.25 18.625C18.7332 18.625 19.125 18.2332 19.125 17.75C19.125 17.2668 18.7332 16.875 18.25 16.875C17.7668 16.875 17.375 17.2668 17.375 17.75C17.375 18.2332 17.7668 18.625 18.25 18.625Z" fill="#434343"/>
<path d="M21.75 18.625C22.2332 18.625 22.625 18.2332 22.625 17.75C22.625 17.2668 22.2332 16.875 21.75 16.875C21.2668 16.875 20.875 17.2668 20.875 17.75C20.875 18.2332 21.2668 18.625 21.75 18.625Z" fill="#434343"/>
<path d="M18.25 22.125C18.7332 22.125 19.125 21.7332 19.125 21.25C19.125 20.7668 18.7332 20.375 18.25 20.375C17.7668 20.375 17.375 20.7668 17.375 21.25C17.375 21.7332 17.7668 22.125 18.25 22.125Z" fill="#434343"/>
<path d="M24.375 30C20.9984 30 18.25 27.2516 18.25 23.875C18.25 20.4984 20.9984 17.75 24.375 17.75C27.7516 17.75 30.5 20.4984 30.5 23.875C30.5 27.2516 27.7516 30 24.375 30ZM24.375 19.5C21.9626 19.5 20 21.4626 20 23.875C20 26.2874 21.9626 28.25 24.375 28.25C26.7874 28.25 28.75 26.2874 28.75 23.875C28.75 21.4626 26.7874 19.5 24.375 19.5ZM24.2105 26.3092C23.9961 26.3092 23.7879 26.2305 23.626 26.0852L22.0405 24.6634C21.6809 24.3414 21.6511 23.7884 21.974 23.4279C22.2969 23.0683 22.8507 23.0385 23.2095 23.3614L24.074 24.1366L25.418 22.2948C25.7024 21.9045 26.2492 21.8179 26.6395 22.1031C27.0297 22.3875 27.1164 22.9344 26.8311 23.3246L24.9166 25.9496C24.7714 26.15 24.5474 26.2786 24.3015 26.304L24.2105 26.3092V26.3092Z" fill="#434343"/>
</svg>
