<svg width="29" height="20" viewBox="0 0 29 20" fill="none" xmlns="http://www.w3.org/2000/svg">
<path d="M28.3926 7.46258C28.3027 7.32616 28.1665 7.23548 28.0155 7.21201C27.9882 7.20764 27.333 7.10701 26.3216 7.10701C25.4309 7.10701 24.3753 7.18417 23.2657 7.42081C23.307 4.34681 22.5102 1.869 22.4595 1.71468C22.407 1.55639 22.2989 1.42753 22.1594 1.35872C22.0196 1.28992 21.8614 1.28634 21.7191 1.34997C21.5926 1.40645 19.7214 2.26115 17.8362 4.02545C16.5451 1.73855 14.9734 0.250267 14.8627 0.146462C14.6528 -0.0488205 14.3462 -0.0488205 14.1363 0.146462C14.0252 0.250267 12.4538 1.73815 11.1634 4.02506C9.2786 2.26036 7.40742 1.40645 7.2809 1.34957C7.13857 1.28634 6.98042 1.28952 6.8406 1.35832C6.70115 1.42673 6.59296 1.55559 6.54048 1.71429C6.48944 1.8686 5.69295 4.34642 5.73429 7.42042C4.62473 7.18377 3.5691 7.10662 2.67843 7.10662C1.66737 7.10662 1.01177 7.20724 0.984454 7.21161C0.833494 7.23508 0.697271 7.32576 0.607415 7.46218C0.517917 7.599 0.481975 7.77002 0.508572 7.93626C0.548109 8.18007 1.50167 13.9355 5.40289 17.072C7.17343 18.4958 9.12333 19.2924 10.7929 19.654C11.4211 19.858 12.8438 20 14.4996 20C16.1537 20 17.5738 19.8584 18.2039 19.6552C19.8742 19.2932 21.8251 18.497 23.5975 17.072C27.4987 13.9355 28.4526 8.18047 28.4914 7.93706C28.518 7.77081 28.4821 7.59939 28.3926 7.46258ZM21.5825 2.7941C21.9685 4.33488 22.7269 8.32922 21.3201 11.8268C20.3295 14.2887 18.7923 16.0757 17.4958 17.1567C18.6144 15.3204 19.5392 12.732 19.5392 9.94079C19.5392 8.18524 19.0593 6.55219 18.4084 5.14067C19.633 3.96023 20.8849 3.18029 21.5825 2.7941ZM14.5 1.46929C15.5334 2.5674 18.4124 5.98225 18.4124 9.94119C18.4124 14.8336 15.2918 18.6346 14.4996 18.635C13.7082 18.6346 10.5884 14.8328 10.5884 9.94079C10.5884 5.991 13.4681 2.56899 14.5 1.46929ZM7.41892 2.7945C8.11693 3.18069 9.3681 3.96063 10.5923 5.14107C9.94138 6.55259 9.46155 8.18564 9.46155 9.94079C9.46155 12.7324 10.3856 15.3196 11.5042 17.1563C10.2081 16.0753 8.67081 14.2883 7.68058 11.8268C6.27738 8.33916 7.03397 4.33806 7.41892 2.7945ZM1.75686 8.3845C2.00415 8.3674 2.31685 8.35348 2.67879 8.35348C3.45911 8.35348 4.58196 8.42348 5.80294 8.7162C5.91472 9.90221 6.16991 11.1367 6.65154 12.3339C7.75283 15.0722 9.58375 17.2346 11.1994 18.4723C9.63443 18.1653 7.76469 17.4307 6.0646 16.0637C3.27293 13.8182 2.12024 9.93283 1.75686 8.3845ZM22.9358 16.0637C21.236 17.4307 19.3656 18.1649 17.8006 18.4723C19.4166 17.235 21.2475 15.0726 22.3488 12.3339C22.8304 11.1371 23.086 9.90261 23.1974 8.7162C24.4184 8.42348 25.5412 8.35348 26.3216 8.35348C26.6842 8.35348 26.9973 8.3674 27.2442 8.3849C26.8833 9.93164 25.7353 13.8122 22.9358 16.0637Z" fill="white"/>
</svg>
