<svg width="33" height="32" viewBox="0 0 33 32" fill="none" xmlns="http://www.w3.org/2000/svg">
<path d="M2.4 16C2.4 23.7872 8.71278 30.1 16.5 30.1C24.2872 30.1 30.6 23.7872 30.6 16C30.6 8.21278 24.2872 1.9 16.5 1.9C8.71278 1.9 2.4 8.21278 2.4 16ZM28.0667 16C28.0667 22.3881 22.8881 27.5667 16.5 27.5667C10.1119 27.5667 4.93333 22.3881 4.93333 16C4.93333 9.61191 10.1119 4.43333 16.5 4.43333C22.8881 4.43333 28.0667 9.61191 28.0667 16ZM16.2088 7.15C15.6741 7.15 15.2333 7.58724 15.2333 8.1269V18.0398C15.2333 18.5839 15.6703 19.0167 16.2088 19.0167H16.7912C17.3259 19.0167 17.7667 18.5794 17.7667 18.0398V8.1269C17.7667 7.58276 17.3297 7.15 16.7912 7.15H16.2088ZM14.65 23C14.65 24.0217 15.4783 24.85 16.5 24.85C17.5217 24.85 18.35 24.0217 18.35 23C18.35 21.9783 17.5217 21.15 16.5 21.15C15.4783 21.15 14.65 21.9783 14.65 23Z" fill="#434343" stroke="#434343" stroke-width="0.2"/>
</svg>
