<svg width="24" height="24" viewBox="0 0 24 24" fill="none" xmlns="http://www.w3.org/2000/svg">
<path fill-rule="evenodd" clip-rule="evenodd" d="M12.2557 2.00327C12.1706 2.00109 12.0854 2 12 2C10.0222 2 8.08879 2.58649 6.4443 3.6853C4.79981 4.78412 3.51809 6.3459 2.76121 8.17316C2.00433 10.0004 1.8063 12.0111 2.19215 13.9509C2.578 15.8907 3.53041 17.6725 4.92894 19.0711C6.32746 20.4696 8.10929 21.422 10.0491 21.8078C10.7791 21.9531 11.5191 22.0156 12.2557 21.9967C12.2894 21.9989 12.3232 22 12.3571 22C12.4359 22 12.5141 21.9941 12.5917 21.9825C13.6981 21.9169 14.7919 21.6675 15.8268 21.2388C17.6541 20.4819 19.2159 19.2002 20.3147 17.5557C21.4135 15.9112 22 13.9778 22 12C22 9.34783 20.9464 6.8043 19.0711 4.92893C17.3356 3.19346 15.0279 2.16176 12.5915 2.01749C12.514 2.00589 12.4358 2 12.3571 2C12.3232 2 12.2894 2.00109 12.2557 2.00327ZM12.2974 3.20873C12.348 3.21044 12.3986 3.21259 12.4491 3.21517C12.8468 3.30981 13.473 3.99289 14.0135 5.36852C14.3428 6.2067 14.6011 7.18308 14.781 8.25H9.93037C10.1095 7.18308 10.368 6.2067 10.7008 5.36852C11.2578 3.95365 11.9035 3.27292 12.2974 3.20873ZM8.71412 8.25C9.04217 6.18689 9.63286 4.46581 10.3807 3.35556C8.65096 3.6811 7.04498 4.5206 5.78279 5.78279C5.05948 6.50609 4.47499 7.3423 4.04648 8.25H8.71412ZM3.49844 9.75H8.52841C8.46308 10.4732 8.42857 11.2264 8.42857 12C8.42857 12.7736 8.46308 13.5268 8.52841 14.25H3.49634C3.30309 13.5196 3.20371 12.7636 3.20371 12C3.20451 11.2338 3.30516 10.478 3.49844 9.75ZM9.73642 9.75H14.9764C15.0449 10.4761 15.0801 11.2302 15.0801 12C15.0801 12.7698 15.0456 13.5239 14.9779 14.25H9.73822C9.66959 13.5239 9.63422 12.7698 9.63422 12C9.63422 11.2302 9.66873 10.4761 9.73642 9.75ZM16.1859 9.75C16.2512 10.4732 16.2857 11.2264 16.2857 12C16.2857 12.7736 16.2512 13.5268 16.1859 14.25H20.5037C20.5503 14.0737 20.5916 13.8957 20.6273 13.7161C20.8897 12.3968 20.8451 11.0404 20.5037 9.75H16.1859ZM19.9569 8.25C19.2772 6.8078 18.217 5.57483 16.887 4.68615C16.1371 4.18509 15.3189 3.80514 14.4624 3.55539C15.1492 4.66713 15.6912 6.30686 16.0002 8.25H19.9569ZM9.93399 15.75H14.7839C14.6048 16.8169 14.3463 17.7933 14.0135 18.6315C13.4729 20.0024 12.848 20.6898 12.4491 20.7848C12.3984 20.7874 12.3478 20.7896 12.2971 20.7913C11.9002 20.7271 11.2561 20.0448 10.7008 18.6315C10.3724 17.7933 10.1141 16.8169 9.93399 15.75ZM8.71412 15.75H4.04309C4.22821 16.1428 4.44291 16.5229 4.68615 16.887C5.6527 18.3335 7.02649 19.4609 8.63381 20.1267C9.19976 20.3611 9.78572 20.5346 10.3819 20.6462C9.63348 19.536 9.04235 17.8142 8.71412 15.75ZM19.9569 15.75H16.0002C15.6912 17.6931 15.1492 19.3329 14.4624 20.4446C15.878 20.0318 17.1714 19.2684 18.2199 18.2199C18.9408 17.4991 19.5269 16.6625 19.9569 15.75Z" fill="#434343"/>
</svg>
