<svg width="16" height="20" viewBox="0 0 16 20" fill="none" xmlns="http://www.w3.org/2000/svg">
<path d="M8 20C7.70563 20 7.42906 19.8664 7.25187 19.6391C2.70875 13.8009 0.5 9.72909 0.5 7.19C0.5 3.22546 3.86469 0 8 0C12.1353 0 15.5 3.22546 15.5 7.19C15.5 9.72909 13.2922 13.8009 8.74813 19.6382C8.57094 19.8664 8.29344 20 8 20ZM8 1.81818C4.89781 1.81818 2.375 4.22818 2.375 7.19C2.375 8.56182 3.37437 11.4691 8 17.5691C12.6256 11.47 13.625 8.56273 13.625 7.19C13.625 4.22818 11.1022 1.81818 8 1.81818ZM8 10.9091C5.93187 10.9091 4.25 9.27818 4.25 7.27273C4.25 5.26727 5.93187 3.63636 8 3.63636C10.0681 3.63636 11.75 5.26727 11.75 7.27273C11.75 9.27818 10.0681 10.9091 8 10.9091ZM8 5.45455C6.96594 5.45455 6.125 6.27 6.125 7.27273C6.125 8.27545 6.96594 9.09091 8 9.09091C9.03406 9.09091 9.875 8.27545 9.875 7.27273C9.875 6.27 9.03406 5.45455 8 5.45455Z" fill="white"/>
</svg>
