<svg width="22" height="15" viewBox="0 0 22 15" fill="none" xmlns="http://www.w3.org/2000/svg">
<path d="M10.285 10.5976C11.2448 9.96007 11.9739 9.03043 12.3643 7.94631C12.7547 6.86219 12.7857 5.68118 12.4527 4.57806C12.1197 3.47495 11.4404 2.50835 10.5153 1.82131C9.59029 1.13428 8.46863 0.763306 7.31636 0.763306C6.16408 0.763306 5.04242 1.13428 4.11737 1.82131C3.19232 2.50835 2.51304 3.47495 2.18005 4.57806C1.84706 5.68118 1.87806 6.86219 2.26846 7.94631C2.65886 9.03043 3.38792 9.96007 4.34773 10.5976C2.71156 11.2012 1.29743 12.2877 0.292788 13.7132C0.237979 13.79 0.198899 13.8769 0.177796 13.9688C0.156693 14.0608 0.153985 14.156 0.169828 14.249C0.18567 14.342 0.219751 14.4309 0.270107 14.5107C0.320463 14.5905 0.386101 14.6595 0.463241 14.7138C0.540382 14.7681 0.627501 14.8066 0.719584 14.8271C0.811668 14.8476 0.906897 14.8497 0.999788 14.8332C1.09268 14.8168 1.1814 14.7821 1.26084 14.7312C1.34028 14.6804 1.40888 14.6143 1.46267 14.5368C2.12287 13.5976 2.99936 12.831 4.01814 12.3019C5.03692 11.7727 6.16807 11.4964 7.31608 11.4964C8.4641 11.4963 9.59527 11.7725 10.6141 12.3017C11.6329 12.8308 12.5094 13.5973 13.1697 14.5364C13.2237 14.6133 13.2924 14.6789 13.3718 14.7292C13.4511 14.7796 13.5397 14.8138 13.6323 14.83C13.7249 14.8461 13.8198 14.8438 13.9115 14.8233C14.0033 14.8027 14.0901 14.7642 14.1669 14.7101C14.2438 14.656 14.3092 14.5872 14.3595 14.5078C14.4098 14.4284 14.4439 14.3398 14.4599 14.2472C14.476 14.1545 14.4736 14.0596 14.4529 13.9679C14.4322 13.8762 14.3937 13.7895 14.3395 13.7127C13.3349 12.2874 11.9209 11.2011 10.285 10.5975V10.5976ZM3.38181 6.13126C3.38181 5.35309 3.61257 4.5924 4.0449 3.94537C4.47722 3.29835 5.09171 2.79406 5.81064 2.49626C6.52958 2.19847 7.32068 2.12055 8.08389 2.27237C8.84711 2.42418 9.54817 2.7989 10.0984 3.34915C10.6487 3.8994 11.0234 4.60046 11.1752 5.36368C11.327 6.1269 11.2491 6.91799 10.9513 7.63693C10.6535 8.35587 10.1492 8.97035 9.5022 9.40268C8.85518 9.835 8.09448 10.0658 7.31631 10.0658C6.27318 10.0646 5.27311 9.64967 4.53551 8.91207C3.7979 8.17446 3.383 7.17439 3.38181 6.13126ZM21.4562 14.7095C21.3794 14.7636 21.2927 14.8021 21.201 14.8227C21.1093 14.8432 21.0145 14.8456 20.9219 14.8295C20.8294 14.8134 20.7409 14.7793 20.6615 14.729C20.5822 14.6787 20.5135 14.6133 20.4594 14.5365C19.7984 13.5982 18.9217 12.8323 17.9031 12.3033C16.8845 11.7743 15.7538 11.4976 14.606 11.4965C14.4163 11.4965 14.2344 11.4211 14.1002 11.287C13.966 11.1528 13.8907 10.9708 13.8907 10.7811C13.8907 10.5914 13.966 10.4094 14.1002 10.2753C14.2344 10.1411 14.4163 10.0658 14.606 10.0658C15.1679 10.0651 15.7231 9.94417 16.2343 9.71103C16.7455 9.47789 17.2008 9.13797 17.5696 8.71414C17.9385 8.29031 18.2122 7.7924 18.3726 7.25391C18.5329 6.71542 18.576 6.14884 18.499 5.59229C18.4221 5.03574 18.2268 4.50213 17.9264 4.02736C17.6259 3.55259 17.2273 3.14767 16.7573 2.83984C16.2873 2.53202 15.7568 2.32843 15.2015 2.24277C14.6462 2.15711 14.079 2.19136 13.5381 2.34324C13.3557 2.39382 13.1607 2.37006 12.9958 2.27717C12.8309 2.18428 12.7095 2.02982 12.6583 1.84762C12.607 1.66543 12.6301 1.47035 12.7223 1.3051C12.8146 1.13986 12.9686 1.01792 13.1506 0.965985C14.3812 0.618783 15.6954 0.722567 16.8562 1.25863C18.0171 1.7947 18.9483 2.72779 19.482 3.88972C20.0157 5.05166 20.1168 6.36602 19.7671 7.59591C19.4173 8.8258 18.6398 9.89033 17.5746 10.5976C19.2106 11.2011 20.6246 12.2875 21.6292 13.7128C21.7384 13.8679 21.7816 14.0601 21.7491 14.247C21.7167 14.4339 21.6113 14.6003 21.4562 14.7095Z" fill="#262626"/>
</svg>
