<svg width="22" height="19" viewBox="0 0 22 19" fill="none" xmlns="http://www.w3.org/2000/svg">
<path d="M8.56612 0.600006L8.03391 2.2226H5.72657C4.65566 2.2226 3.70157 2.92032 3.39409 3.94661L2.27856 7.67371L0.706262 7.1415L0.200012 8.66188L1.79665 9.1949L1.28959 10.9189C1.27014 10.9933 1.26166 11.0701 1.26444 11.1469V17.6373C1.26444 18.0835 1.62952 18.4486 2.07573 18.4486H4.50963L4.78871 17.6373H17.2113L17.4904 18.4486H19.9243C20.3705 18.4486 20.7356 18.0835 20.7356 17.6373V16.9525C20.7388 16.912 20.7388 16.8673 20.7356 16.826V11.1469C20.7384 11.0701 20.7299 10.9933 20.7104 10.9189L20.2034 9.1949L21.8 8.66269L21.2929 7.14069L19.7215 7.67371L18.6059 3.94661C18.4539 3.44681 18.145 3.00925 17.7249 2.69873C17.3048 2.38822 16.7959 2.22127 16.2734 2.2226H13.9661L13.4339 0.600006H8.56612ZM5.72657 3.8452H16.2734C16.6345 3.8452 16.9549 4.08291 17.0596 4.42852L18.0989 7.90169H3.90115L4.94043 4.42852C5.0459 4.07966 5.36555 3.8452 5.72657 3.8452ZM3.41924 9.52429H18.5808L19.113 11.2994V16.0147H2.88703V11.2986L3.41924 9.52429ZM4.91528 10.3356C4.59252 10.3356 4.28299 10.4638 4.05476 10.692C3.82654 10.9202 3.69833 11.2298 3.69833 11.5525C3.69833 11.8753 3.82654 12.1848 4.05476 12.413C4.28299 12.6413 4.59252 12.7695 4.91528 12.7695C5.23803 12.7695 5.54757 12.6413 5.77579 12.413C6.00401 12.1848 6.13222 11.8753 6.13222 11.5525C6.13222 11.2298 6.00401 10.9202 5.77579 10.692C5.54757 10.4638 5.23803 10.3356 4.91528 10.3356ZM17.0847 10.3356C16.762 10.3356 16.4525 10.4638 16.2242 10.692C15.996 10.9202 15.8678 11.2298 15.8678 11.5525C15.8678 11.8753 15.996 12.1848 16.2242 12.413C16.4525 12.6413 16.762 12.7695 17.0847 12.7695C17.4075 12.7695 17.717 12.6413 17.9453 12.413C18.1735 12.1848 18.3017 11.8753 18.3017 11.5525C18.3017 11.2298 18.1735 10.9202 17.9453 10.692C17.717 10.4638 17.4075 10.3356 17.0847 10.3356ZM7.75482 12.7695L6.7407 15.2034H8.48986L8.8452 14.3921H13.1548L13.5102 15.2034H15.2593L14.2452 12.7695H7.75482Z" fill="#262626"/>
</svg>
