<svg width="20" height="20" viewBox="0 0 20 20" fill="none" xmlns="http://www.w3.org/2000/svg">
<path fill-rule="evenodd" clip-rule="evenodd" d="M10.2557 0.00326635C10.1706 0.00109136 10.0854 0 10 0C8.02219 0 6.08879 0.58649 4.4443 1.6853C2.79981 2.78412 1.51809 4.3459 0.761209 6.17316C0.00433286 8.00043 -0.1937 10.0111 0.192152 11.9509C0.578004 13.8907 1.53041 15.6725 2.92894 17.0711C4.32746 18.4696 6.10929 19.422 8.0491 19.8078C8.7791 19.9531 9.51914 20.0156 10.2557 19.9967C10.2894 19.9989 10.3232 20 10.3571 20C10.4359 20 10.5141 19.9941 10.5917 19.9825C11.6981 19.9169 12.7919 19.6675 13.8268 19.2388C15.6541 18.4819 17.2159 17.2002 18.3147 15.5557C19.4135 13.9112 20 11.9778 20 10C20 7.34783 18.9464 4.8043 17.0711 2.92893C15.3356 1.19346 13.0279 0.161758 10.5915 0.017492C10.514 0.0058852 10.4358 0 10.3571 0C10.3232 0 10.2894 0.00109315 10.2557 0.00326635ZM10.2974 1.20873C10.348 1.21044 10.3986 1.21259 10.4491 1.21517C10.8468 1.30981 11.473 1.99289 12.0135 3.36852C12.3428 4.2067 12.6011 5.18308 12.781 6.25H7.93037C8.10947 5.18308 8.36796 4.2067 8.70076 3.36852C9.25776 1.95365 9.90353 1.27292 10.2974 1.20873ZM6.71412 6.25C7.04217 4.18689 7.63286 2.46581 8.38074 1.35556C6.65096 1.6811 5.04498 2.5206 3.78279 3.78279C3.05948 4.50609 2.47499 5.3423 2.04648 6.25H6.71412ZM1.49844 7.75H6.52841C6.46308 8.47321 6.42857 9.22635 6.42857 10C6.42857 10.7736 6.46308 11.5268 6.52841 12.25H1.49634C1.30309 11.5196 1.20371 10.7636 1.20371 10C1.20451 9.23382 1.30516 8.47802 1.49844 7.75ZM7.73642 7.75H12.9764C13.0449 8.4761 13.0801 9.23021 13.0801 10C13.0801 10.7698 13.0456 11.5239 12.9779 12.25H7.73822C7.66959 11.5239 7.63422 10.7698 7.63422 10C7.63422 9.23021 7.66873 8.4761 7.73642 7.75ZM14.1859 7.75C14.2512 8.47321 14.2857 9.22635 14.2857 10C14.2857 10.7736 14.2512 11.5268 14.1859 12.25H18.5037C18.5503 12.0737 18.5916 11.8957 18.6273 11.7161C18.8897 10.3968 18.8451 9.04037 18.5037 7.75H14.1859ZM17.9569 6.25C17.2772 4.8078 16.217 3.57483 14.887 2.68615C14.1371 2.18509 13.3189 1.80514 12.4624 1.55539C13.1492 2.66713 13.6912 4.30686 14.0002 6.25H17.9569ZM7.93399 13.75H12.7839C12.6048 14.8169 12.3463 15.7933 12.0135 16.6315C11.4729 18.0024 10.848 18.6898 10.4491 18.7848C10.3984 18.7874 10.3478 18.7896 10.2971 18.7913C9.90016 18.7271 9.25606 18.0448 8.70076 16.6315C8.3724 15.7933 8.1141 14.8169 7.93399 13.75ZM6.71412 13.75H2.04309C2.22821 14.1428 2.44291 14.5229 2.68615 14.887C3.6527 16.3335 5.02649 17.4609 6.63381 18.1267C7.19976 18.3611 7.78572 18.5346 8.38192 18.6462C7.63348 17.536 7.04235 15.8142 6.71412 13.75ZM17.9569 13.75H14.0002C13.6912 15.6931 13.1492 17.3329 12.4624 18.4446C13.878 18.0318 15.1714 17.2684 16.2199 16.2199C16.9408 15.4991 17.5269 14.6625 17.9569 13.75Z" fill="#434343"/>
</svg>
