<svg width="33" height="32" viewBox="0 0 33 32" fill="none" xmlns="http://www.w3.org/2000/svg">
<path d="M16.5 19.3864C19.8751 19.3864 22.6111 16.6456 22.6111 13.2647C22.6111 9.88382 19.8751 7.14307 16.5 7.14307C13.1249 7.14307 10.3889 9.88382 10.3889 13.2647C10.3889 16.6456 13.1249 19.3864 16.5 19.3864Z" fill="#434343"/>
<path d="M26.9334 24.3394C28.2595 22.6699 29.1671 20.7065 29.5802 18.6135C29.9932 16.5205 29.8998 14.3588 29.3076 12.3094C28.7154 10.26 27.6417 8.38256 26.1764 6.8342C24.7111 5.28584 22.8969 4.11164 20.8855 3.4099C18.8742 2.70816 16.7243 2.49929 14.6158 2.80078C12.5074 3.10227 10.5017 3.90536 8.76667 5.1428C7.03167 6.38024 5.61784 8.01602 4.64354 9.91322C3.66924 11.8104 3.16283 13.9138 3.16669 16.0473C3.16854 19.0571 4.19108 21.977 6.06669 24.3283V24.3283C7.31595 25.8902 8.89965 27.1509 10.7007 28.0173C12.5018 28.8836 14.4743 29.3334 16.4723 29.3334C18.4702 29.3334 20.4427 28.8836 22.2438 28.0173C24.0448 27.1509 25.6286 25.8902 26.8778 24.3283L26.9334 24.3394ZM16.5 4.91705C18.5635 4.91705 20.5862 5.49265 22.3415 6.57935C24.0968 7.66605 25.5153 9.22091 26.4381 11.0697C27.3609 12.9185 27.7516 14.9882 27.5662 17.0469C27.3809 19.1056 26.627 21.0719 25.3889 22.7255C22.6265 21.3347 19.5908 20.5745 16.5 20.4994C13.4093 20.5745 10.3735 21.3347 7.61114 22.7255C6.37306 21.0719 5.61912 19.1056 5.43381 17.0469C5.2485 14.9882 5.63914 12.9185 6.56195 11.0697C7.48476 9.22091 8.90328 7.66605 10.6586 6.57935C12.4139 5.49265 14.4366 4.91705 16.5 4.91705V4.91705Z" fill="#434343"/>
</svg>
