<svg width="17" height="20" viewBox="0 0 17 20" fill="none" xmlns="http://www.w3.org/2000/svg">
<path d="M16.676 2.56276L9.28987 0.0456472C9.20074 0.0152157 9.08119 0 8.96164 0C8.84209 0 8.72254 0.0152157 8.63342 0.0456472L1.24726 2.56276C1.06685 2.62363 0.919037 2.8323 0.919037 3.02358V13.5094C0.919037 13.7007 1.04294 13.9528 1.19292 14.0724L8.68558 19.9109C8.76166 19.9696 8.85948 20 8.95947 20C9.05946 20 9.15945 19.9696 9.23335 19.9109L16.726 14.0724C16.876 13.955 16.9999 13.7029 16.9999 13.5094V3.02358C17.0042 2.8323 16.8564 2.6258 16.676 2.56276ZM15.4392 13.0921L8.96164 18.1393L2.48408 13.0921V3.79741L8.96164 1.58896L15.4392 3.79741V13.0921ZM6.61842 8.72297C6.55321 8.63384 6.44887 8.5795 6.33584 8.5795H5.13597C4.99468 8.5795 4.91208 8.74035 4.99468 8.85556L7.74221 12.6378C7.7747 12.6822 7.81722 12.7184 7.86632 12.7433C7.91542 12.7683 7.96972 12.7813 8.02479 12.7813C8.07986 12.7813 8.13415 12.7683 8.18325 12.7433C8.23235 12.7184 8.27488 12.6822 8.30736 12.6378L12.9286 6.27541C13.0112 6.1602 12.9286 5.99935 12.7873 5.99935H11.5874C11.4766 5.99935 11.3701 6.05369 11.3049 6.14281L8.02479 10.6597L6.61842 8.72297Z" fill="#262626"/>
</svg>
