<svg width="20" height="22" viewBox="0 0 20 22" fill="none" xmlns="http://www.w3.org/2000/svg">
<path fill-rule="evenodd" clip-rule="evenodd" d="M13.9141 11.1972C13.9779 11.2599 14.0286 11.3344 14.0631 11.4164C14.0977 11.4984 14.1155 11.5863 14.1155 11.6751C14.1155 11.7639 14.0977 11.8518 14.0631 11.9338C14.0286 12.0158 13.9779 12.0903 13.9141 12.153L9.79977 16.203C9.73607 16.2659 9.6604 16.3157 9.57709 16.3498C9.49378 16.3838 9.40448 16.4013 9.31428 16.4013C9.22409 16.4013 9.13478 16.3838 9.05147 16.3498C8.96816 16.3157 8.89249 16.2659 8.82879 16.203L6.77165 14.178C6.7079 14.1152 6.65732 14.0407 6.62282 13.9587C6.58832 13.8767 6.57056 13.7889 6.57056 13.7001C6.57056 13.6114 6.58832 13.5235 6.62282 13.4415C6.65732 13.3595 6.7079 13.285 6.77165 13.2222C6.90041 13.0955 7.07504 13.0243 7.25714 13.0243C7.3473 13.0243 7.43658 13.0417 7.51988 13.0757C7.60318 13.1097 7.67887 13.1594 7.74262 13.2222L9.31428 14.7707L12.9431 11.1972C13.0068 11.1343 13.0824 11.0845 13.1658 11.0504C13.2491 11.0164 13.3384 10.9989 13.4286 10.9989C13.5188 10.9989 13.6081 11.0164 13.6914 11.0504C13.7747 11.0845 13.8504 11.1343 13.9141 11.1972Z" fill="#262626"/>
<path d="M9.9999 1.55001C10.9092 1.55001 11.7813 1.90559 12.4243 2.53853C13.0673 3.17146 13.4285 4.02991 13.4285 4.92501V5.60001H6.57133V4.92501C6.57133 4.02991 6.93255 3.17146 7.57554 2.53853C8.21852 1.90559 9.09059 1.55001 9.9999 1.55001ZM14.7999 5.60001V4.92501C14.7999 3.67186 14.2942 2.47004 13.394 1.58393C12.4938 0.697823 11.2729 0.200012 9.9999 0.200012C8.72686 0.200012 7.50596 0.697823 6.60579 1.58393C5.70562 2.47004 5.1999 3.67186 5.1999 4.92501V5.60001H0.399902V19.1C0.399902 19.8161 0.688881 20.5029 1.20327 21.0092C1.71765 21.5155 2.41531 21.8 3.14276 21.8H16.857C17.5845 21.8 18.2822 21.5155 18.7965 21.0092C19.3109 20.5029 19.5999 19.8161 19.5999 19.1V5.60001H14.7999ZM1.77133 6.95001H18.2285V19.1C18.2285 19.4581 18.084 19.8014 17.8268 20.0546C17.5696 20.3078 17.2208 20.45 16.857 20.45H3.14276C2.77903 20.45 2.43021 20.3078 2.17301 20.0546C1.91582 19.8014 1.77133 19.4581 1.77133 19.1V6.95001Z" fill="#262626"/>
</svg>
