<svg width="20" height="20" viewBox="0 0 20 20" fill="none" xmlns="http://www.w3.org/2000/svg">
<path d="M9.9999 19.6C8.1012 19.6 6.24514 19.037 4.66643 17.9821C3.08772 16.9272 1.85726 15.4279 1.13066 13.6738C0.404062 11.9196 0.21395 9.98935 0.584368 8.12713C0.954786 6.26491 1.8691 4.55436 3.21168 3.21177C4.55426 1.86919 6.26482 0.954877 8.12704 0.584459C9.98926 0.214041 11.9195 0.404153 13.6737 1.13075C15.4278 1.85736 16.9272 3.08781 17.982 4.66652C19.0369 6.24523 19.5999 8.1013 19.5999 10C19.5999 12.5461 18.5885 14.9879 16.7881 16.7882C14.9878 18.5886 12.546 19.6 9.9999 19.6ZM9.9999 1.77143C8.37245 1.77143 6.78154 2.25402 5.42836 3.15819C4.07517 4.06236 3.0205 5.34748 2.3977 6.85106C1.7749 8.35463 1.61194 10.0091 1.92944 11.6053C2.24695 13.2015 3.03064 14.6677 4.18143 15.8185C5.33221 16.9693 6.7984 17.753 8.39459 18.0705C9.99078 18.388 11.6453 18.225 13.1488 17.6022C14.6524 16.9794 15.9375 15.9247 16.8417 14.5715C17.7459 13.2184 18.2285 11.6275 18.2285 10C18.2285 7.81764 17.3615 5.72467 15.8184 4.18152C14.2752 2.63836 12.1823 1.77143 9.9999 1.77143Z" fill="#262626"/>
<path d="M13.1474 14.1143L9.31421 10.2811V3.82855H10.6856V9.71198L14.1142 13.1474L13.1474 14.1143Z" fill="#262626"/>
</svg>
