<svg width="24" height="24" viewBox="0 0 24 24" fill="none" xmlns="http://www.w3.org/2000/svg">
<path d="M7.95 11.8501C7.95 12.2081 7.80777 12.5515 7.55459 12.8047C7.30142 13.0579 6.95804 13.2001 6.6 13.2001C6.24196 13.2001 5.89858 13.0579 5.64541 12.8047C5.39223 12.5515 5.25 12.2081 5.25 11.8501C5.25 11.492 5.39223 11.1487 5.64541 10.8955C5.89858 10.6423 6.24196 10.5001 6.6 10.5001C6.95804 10.5001 7.30142 10.6423 7.55459 10.8955C7.80777 11.1487 7.95 11.492 7.95 11.8501ZM13.35 11.8501C13.35 12.2081 13.2078 12.5515 12.9546 12.8047C12.7014 13.0579 12.358 13.2001 12 13.2001C11.642 13.2001 11.2986 13.0579 11.0454 12.8047C10.7922 12.5515 10.65 12.2081 10.65 11.8501C10.65 11.492 10.7922 11.1487 11.0454 10.8955C11.2986 10.6423 11.642 10.5001 12 10.5001C12.358 10.5001 12.7014 10.6423 12.9546 10.8955C13.2078 11.1487 13.35 11.492 13.35 11.8501ZM17.4 13.2001C17.758 13.2001 18.1014 13.0579 18.3546 12.8047C18.6078 12.5515 18.75 12.2081 18.75 11.8501C18.75 11.492 18.6078 11.1487 18.3546 10.8955C18.1014 10.6423 17.758 10.5001 17.4 10.5001C17.042 10.5001 16.6986 10.6423 16.4454 10.8955C16.1922 11.1487 16.05 11.492 16.05 11.8501C16.05 12.2081 16.1922 12.5515 16.4454 12.8047C16.6986 13.0579 17.042 13.2001 17.4 13.2001Z" fill="#262626"/>
<path d="M4.1227 22.384L4.1497 22.3786C6.6202 21.8886 8.1295 21.2419 8.8315 20.8869C9.86504 21.1626 10.9303 21.3014 12 21.3C17.9643 21.3 22.8 17.0691 22.8 11.85C22.8 6.63089 17.9643 2.39999 12 2.39999C6.03565 2.39999 1.19995 6.63089 1.19995 11.85C1.19995 14.226 2.203 16.3995 3.85945 18.06C3.74356 19.1266 3.50623 20.1765 3.15205 21.1893L3.148 21.2041C3.04735 21.4942 2.93749 21.781 2.8186 22.0641C2.71195 22.3152 2.9185 22.596 3.18715 22.5528C3.49989 22.5016 3.81179 22.4454 4.1227 22.384ZM5.2027 18.1882C5.22161 17.9906 5.19669 17.7912 5.12972 17.6043C5.06275 17.4174 4.95538 17.2476 4.81525 17.1069C3.38425 15.6705 2.54995 13.8318 2.54995 11.85C2.54995 7.54079 6.60535 3.74999 12 3.74999C17.3946 3.74999 21.45 7.54079 21.45 11.85C21.45 16.1605 17.3946 19.95 12 19.95C11.0483 19.9514 10.1007 19.8279 9.18115 19.5828C8.85982 19.4967 8.51801 19.5323 8.2213 19.6827C7.69885 19.9473 6.5473 20.4522 4.6654 20.8882C4.92794 20.0069 5.10782 19.103 5.2027 18.1882Z" fill="#262626"/>
</svg>
