<svg width="18" height="18" viewBox="0 0 18 18" fill="none" xmlns="http://www.w3.org/2000/svg">
<path d="M18 9.00772C18.0027 7.43175 17.5908 5.88274 16.8056 4.51591C16.0204 3.14908 14.8895 2.01243 13.5261 1.21987C12.1628 0.427305 10.6149 0.006658 9.03757 7.83901e-05C7.46026 -0.00650122 5.90891 0.401218 4.53898 1.18238C3.16905 1.96354 2.02865 3.09071 1.23206 4.45094C0.435468 5.81118 0.0106581 7.3567 0.000197955 8.93264C-0.0102622 10.5086 0.393995 12.0596 1.17246 13.4303C1.95093 14.8009 3.07626 15.9431 4.4357 16.7424L4.44534 16.8426C4.47594 17.16 4.62405 17.4547 4.86068 17.6688C5.09731 17.8829 5.4054 18.001 5.72463 18H12.2753C12.5944 18.001 12.9023 17.8831 13.1389 17.6692C13.3755 17.4554 13.5237 17.1611 13.5546 16.8438L13.5643 16.7424C14.9142 15.9512 16.0336 14.8212 16.8117 13.4645C17.5898 12.1077 17.9994 10.5714 18 9.00772ZM8.99999 1.30006C10.9776 1.30094 12.8793 2.0613 14.3116 3.42384C15.7439 4.78639 16.5972 6.64687 16.695 8.62041L13.3483 10.2923H4.6517L1.30499 8.62041C1.4028 6.64687 2.2561 4.78639 3.68838 3.42384C5.12066 2.0613 7.02232 1.30094 8.99999 1.30006ZM1.36284 10.0855L3.8957 11.3509L4.2692 15.0826C2.68682 13.858 1.64429 12.0655 1.36284 10.0855ZM12.2753 16.7154H5.72463L5.21034 11.5769H12.7896L12.2753 16.7154ZM13.7308 15.0826L14.1043 11.3509L16.6371 10.0855C16.3558 12.0654 15.3135 13.8578 13.7314 15.0826H13.7308Z" fill="#262626"/>
</svg>
