<svg width="20" height="20" viewBox="0 0 20 20" fill="none" xmlns="http://www.w3.org/2000/svg">
<path d="M15.0009 12.3877C14.5558 12.3899 14.117 12.4921 13.7167 12.6866C13.3164 12.8811 12.9648 13.163 12.688 13.5114L8.3417 10.7943C8.50011 10.283 8.50011 9.73583 8.3417 9.2246L12.688 6.50741C13.1291 7.05365 13.7494 7.42613 14.4389 7.55886C15.1283 7.69158 15.8425 7.57599 16.4549 7.23257C17.0673 6.88914 17.5384 6.34004 17.7847 5.68254C18.0311 5.02503 18.0367 4.30157 17.8007 3.6403C17.5647 2.97903 17.1022 2.42263 16.4953 2.06968C15.8883 1.71672 15.176 1.58999 14.4845 1.71193C13.7931 1.83387 13.1671 2.19661 12.7175 2.73589C12.2679 3.27517 12.0236 3.95619 12.028 4.6583C12.0308 4.92418 12.0709 5.18836 12.147 5.44313L7.80064 8.16032C7.41694 7.67728 6.89246 7.32557 6.29992 7.15395C5.70738 6.98232 5.07612 6.99928 4.49365 7.20247C3.91118 7.40567 3.40635 7.78503 3.04913 8.28797C2.69191 8.79092 2.5 9.39254 2.5 10.0094C2.5 10.6263 2.69191 11.2279 3.04913 11.7309C3.40635 12.2338 3.91118 12.6132 4.49365 12.8164C5.07612 13.0196 5.70738 13.0365 6.29992 12.8649C6.89246 12.6933 7.41694 12.3416 7.80064 11.8585L12.147 14.5757C12.0709 14.8305 12.0308 15.0947 12.028 15.3606C12.028 15.9485 12.2024 16.5233 12.5291 17.0122C12.8557 17.5011 13.32 17.8821 13.8632 18.1071C14.4064 18.3321 15.0042 18.391 15.5809 18.2763C16.1575 18.1616 16.6873 17.8784 17.103 17.4627C17.5188 17.0469 17.8019 16.5172 17.9166 15.9405C18.0313 15.3639 17.9725 14.7661 17.7474 14.2229C17.5224 13.6797 17.1414 13.2154 16.6525 12.8887C16.1636 12.5621 15.5889 12.3877 15.0009 12.3877ZM15.0009 2.87459C15.3537 2.87459 15.6985 2.9792 15.9919 3.1752C16.2852 3.3712 16.5138 3.64977 16.6488 3.9757C16.7838 4.30163 16.8191 4.66028 16.7503 5.00629C16.6815 5.35229 16.5116 5.67012 16.2622 5.91957C16.0127 6.16903 15.6949 6.33891 15.3489 6.40774C15.0029 6.47656 14.6442 6.44124 14.3183 6.30623C13.9924 6.17123 13.7138 5.94261 13.5178 5.64928C13.3218 5.35595 13.2172 5.01109 13.2172 4.6583C13.2172 4.18523 13.4051 3.73154 13.7396 3.39703C14.0741 3.06252 14.5278 2.87459 15.0009 2.87459ZM5.48777 11.7931C5.13498 11.7931 4.79012 11.6885 4.49679 11.4925C4.20346 11.2965 3.97484 11.018 3.83983 10.692C3.70483 10.3661 3.6695 10.0075 3.73833 9.66145C3.80715 9.31544 3.97704 8.99761 4.22649 8.74816C4.47595 8.4987 4.79378 8.32882 5.13978 8.25999C5.48579 8.19117 5.84443 8.22649 6.17036 8.3615C6.49629 8.4965 6.77487 8.72513 6.97087 9.01846C7.16686 9.31179 7.27148 9.65665 7.27148 10.0094C7.27148 10.4825 7.08355 10.9362 6.74904 11.2707C6.41453 11.6052 5.96084 11.7931 5.48777 11.7931ZM15.0009 17.1443C14.6481 17.1443 14.3032 17.0397 14.0099 16.8437C13.7166 16.6477 13.488 16.3691 13.353 16.0432C13.2179 15.7172 13.1826 15.3586 13.2515 15.0126C13.3203 14.6666 13.4902 14.3487 13.7396 14.0993C13.9891 13.8498 14.3069 13.68 14.6529 13.6111C14.9989 13.5423 15.3576 13.5776 15.6835 13.7126C16.0094 13.8476 16.288 14.0763 16.484 14.3696C16.68 14.6629 16.7846 15.0078 16.7846 15.3606C16.7846 15.8336 16.5967 16.2873 16.2622 16.6218C15.9277 16.9563 15.474 17.1443 15.0009 17.1443Z" fill="#262626"/>
</svg>
