<svg width="12" height="18" viewBox="0 0 12 18" fill="none" xmlns="http://www.w3.org/2000/svg">
<path d="M3.07143 0V3.85714H4.35714V4.5405C1.72014 4.82143 0.580357 6.76929 0.580357 6.76929L0.5 6.91071V18H9.5V6.91071L9.41964 6.76993C9.41964 6.76993 8.27986 4.82143 5.64286 4.53986V3.85714H6.92857V0H3.07143ZM10.7857 0C10.4321 0 10.1429 0.289286 10.1429 0.642857C10.1429 0.996429 10.4321 1.28571 10.7857 1.28571C11.1393 1.28571 11.4286 0.996429 11.4286 0.642857C11.4286 0.289286 11.1393 0 10.7857 0ZM4.35714 1.28571H5.64286V2.57143H4.35714V1.28571ZM8.85714 1.28571C8.50357 1.28571 8.21429 1.575 8.21429 1.92857C8.21429 2.28214 8.50357 2.57143 8.85714 2.57143C9.21071 2.57143 9.5 2.28214 9.5 1.92857C9.5 1.575 9.21071 1.28571 8.85714 1.28571ZM10.7857 2.57143C10.4321 2.57143 10.1429 2.86071 10.1429 3.21429C10.1429 3.56786 10.4321 3.85714 10.7857 3.85714C11.1393 3.85714 11.4286 3.56786 11.4286 3.21429C11.4286 2.86071 11.1393 2.57143 10.7857 2.57143ZM5 5.78571C6.11729 5.78571 6.87071 6.09429 7.37086 6.42857H2.62979C3.12929 6.09429 3.88271 5.78571 5 5.78571ZM1.78571 7.71429H8.21429V16.7143H1.78571V7.71429ZM5 10.2857C3.9425 10.2857 3.07143 11.1568 3.07143 12.2143C3.07143 13.2718 3.9425 14.1429 5 14.1429C6.0575 14.1429 6.92857 13.2718 6.92857 12.2143C6.92857 11.1568 6.0575 10.2857 5 10.2857ZM5 11.5714C5.36193 11.5714 5.64286 11.853 5.64286 12.2143C5.64286 12.5762 5.36129 12.8571 5 12.8571C4.63807 12.8571 4.35714 12.5756 4.35714 12.2143C4.35714 11.8524 4.63871 11.5714 5 11.5714Z" fill="#262626"/>
</svg>
